<svg xmlns="http://www.w3.org/2000/svg" xmlns:xlink="http://www.w3.org/1999/xlink" width="60" height="85"><defs><linearGradient id="a" x1="0%" y1="0%" y2="100%"><stop offset="0%" stop-color="#FE0"/><stop offset="100%" stop-color="#FFCE00"/></linearGradient><path id="b" d="M48.398 59.312h.472c.099 0 .204-.003.316-.01a2.29 2.29 0 00.321-.043c.103-.021.195-.05.279-.088a.436.436 0 00.185-.145.322.322 0 00.047-.18 1.009 1.009 0 00-.03-.246 2.633 2.633 0 00-.085-.282 4.54 4.54 0 00-.114-.286c-.04-.092-.081-.18-.12-.261a16.86 16.86 0 01-.1-.209l.71-.35c.054.098.109.215.163.352a4.706 4.706 0 01.24.857c.025.141.038.267.038.377 0 .197-.033.372-.1.526a1.143 1.143 0 01-.326.44c-.14.115-.306.2-.5.257a1.383 1.383 0 01-.22.038 5.679 5.679 0 01-.53.03c-.082.002-.145.002-.19.002H48.367l-.051-.001a1.095 1.095 0 01-.274-.052.68.68 0 01-.155-.075c-.027.256-.104.501-.233.735a3.122 3.122 0 01-.489.66 4.414 4.414 0 01-.662.562c-.244.17-.495.32-.753.448l-.34-.703c.141-.073.284-.152.427-.238.143-.085.28-.176.41-.272.129-.096.25-.198.363-.306.112-.107.21-.218.292-.333.082-.115.147-.233.195-.355a1.018 1.018 0 00.065-.474v.003a2.275 2.275 0 00-.071-.346 6.05 6.05 0 00-.108-.34c-.039-.109-.077-.214-.116-.314a5.59 5.59 0 01-.097-.273l.73-.304c.08.237.154.434.224.589.07.155.14.278.211.368a.64.64 0 00.218.189.56.56 0 00.245.053zm.542 2.298l-.518-.52.524-.52.517.517-.523.523zm1.15-.006l-.517-.517.523-.524.517.52-.523.52zm-.57-.116l.476.475-.478.478-.475-.475.478-.478zm-6.527-2.593c.077.049.17.099.278.15.109.05.221.096.338.138.117.041.231.075.344.1.112.026.211.038.297.038.05 0 .119-.002.205-.007s.17-.02.254-.043a.588.588 0 00.216-.11c.061-.05.093-.12.095-.211a.661.661 0 00-.067-.282 1.966 1.966 0 00-.19-.325 3.463 3.463 0 00-.273-.34 5.775 5.775 0 00-.659-.616 3.671 3.671 0 00-.315-.224l.454-.672c.186.128.37.272.552.432.182.16.349.331.502.513.153.181.286.37.399.567.112.197.193.396.242.597.053.225.054.433.003.624-.05.19-.142.354-.274.491a1.29 1.29 0 01-.502.315c-.203.073-.43.104-.682.092-.134 0-.27-.013-.408-.04a3.27 3.27 0 01-.79-.257 3.494 3.494 0 01-.342-.184l.323-.746zm-1.756-3.405l.782-.256c.101.769.154 1.488.158 2.158a46.797 46.797 0 01-.046 2.571l-.797.122c.06-.937.079-1.722.055-2.355a35.327 35.327 0 00-.152-2.24zm-5.135 3.823h.627c.252 0 .508-.025.769-.072.26-.048.52-.11.777-.189.258-.078.51-.168.755-.27.246-.1.478-.205.697-.313a2.762 2.762 0 01-.487-.154c-.15-.063-.292-.126-.426-.187a5.2 5.2 0 00-.387-.158 1.08 1.08 0 00-.368-.067.52.52 0 00-.2.038.812.812 0 00-.313.224 1.692 1.692 0 00-.23.325l-.633-.41c.07-.122.152-.24.247-.355.095-.115.201-.217.318-.307.117-.09.243-.163.379-.216.136-.054.28-.081.432-.081.156 0 .312.02.466.062.154.042.307.094.458.157.151.063.303.131.455.205.152.074.306.143.46.207.156.064.313.118.471.162.158.043.32.066.487.068l-.064.785c-.284.136-.58.28-.889.433-.308.152-.63.293-.967.423-.337.13-.69.238-1.056.325-.368.088-.751.135-1.15.143h-.677a2.33 2.33 0 01-.462-.042 1.396 1.396 0 01-.384-.136 1.19 1.19 0 01-.309-.237 1.428 1.428 0 01-.235-.349c-.558.516-1.393.773-2.505.773-.631-.004-1.155-.083-1.572-.237-.417-.154-.724-.39-.92-.706a1.45 1.45 0 01-.167-.405 1.763 1.763 0 01.011-.885v.003a2.693 2.693 0 01.15-.448 1.329 1.329 0 01.09-.176l.588.368c-.02.036-.044.076-.07.119a1.02 1.02 0 00-.134.35 1.328 1.328 0 00-.024.27c0 .071.013.144.04.218.026.074.059.144.1.209a.7.7 0 00.258.243c.116.067.256.122.422.164.165.043.351.074.558.095a7.451 7.451 0 001.287.006c.195-.016.377-.042.544-.078.167-.035.318-.08.453-.137.135-.056.252-.124.352-.205a.866.866 0 00.216-.24c.055-.092.1-.188.137-.288.036-.1.067-.204.091-.31.025-.105.051-.206.08-.303l.7.188c-.027.11-.055.219-.084.327-.03.109-.043.221-.041.337v-.003c.006.111.025.213.057.304a.582.582 0 00.151.233.683.683 0 00.26.147 1.255 1.255 0 00.411.053zm2.41-3.224l-.58.581-.585-.584.581-.581.585.584zm-6.165.916l-.518.518-.523-.52.517-.521.524.523zm1.15.003l-.517.52-.524-.523.517-.517.524.52zm-6.438-1.518l.782-.256c.101.769.154 1.488.158 2.158a46.797 46.797 0 01-.046 2.571l-.797.122c.061-.937.08-1.722.055-2.355a35.327 35.327 0 00-.152-2.24zm-2.006 5.56l-.517.517-.524-.52.518-.52.523.523zm1.15.003l-.517.52-.523-.523.517-.517.523.52zm-2.171-1.74h.26c.1 0 .205-.004.317-.011a2.29 2.29 0 00.32-.043c.103-.021.196-.05.28-.088a.436.436 0 00.185-.145.322.322 0 00.047-.18 1.009 1.009 0 00-.03-.246 2.633 2.633 0 00-.086-.282 4.54 4.54 0 00-.114-.286c-.04-.092-.08-.18-.12-.261a16.86 16.86 0 01-.099-.209l.71-.35c.054.098.108.215.162.352a4.706 4.706 0 01.24.857c.026.141.039.267.039.377 0 .197-.034.372-.1.526a1.143 1.143 0 01-.326.44c-.14.115-.307.2-.5.257a1.383 1.383 0 01-.22.038 5.679 5.679 0 01-.53.03c-.082.002-.145.002-.19.002h-.469a.379.379 0 01-.147-.028.696.696 0 01-.382-.203l-.064-.07-.064.067a.78.78 0 01-.572.222 1.35 1.35 0 01-.42-.079 2.747 2.747 0 01-.408-.17 3.827 3.827 0 01-.43-.25 1.09 1.09 0 01-.261.259 1.338 1.338 0 01-.807.258.41.41 0 01-.072-.006 1.524 1.524 0 01-.606-.128 2.84 2.84 0 01-.043.518 2.29 2.29 0 01-.149.508 2.006 2.006 0 01-.266.452c-.109.14-.24.255-.394.349h.003c-.096.064-.198.12-.308.167a2.3 2.3 0 01-.348.116 3.38 3.38 0 01-.388.071c-.136.017-.28.03-.432.038-.34 0-.63-.04-.872-.122a1.883 1.883 0 01-.632-.35 1.858 1.858 0 01-.48-.695 2.276 2.276 0 01-.159-.845 3.046 3.046 0 01.134-.928c.045-.146.101-.295.17-.447.07-.152.15-.316.244-.49l.639.462a5.108 5.108 0 00-.186.373c-.06.135-.114.275-.16.42-.045.145-.079.29-.1.437a1.498 1.498 0 00-.005.42c.009.049.023.107.045.175.02.068.052.138.094.211.042.074.094.146.158.218.064.072.142.136.233.192.091.056.198.101.321.137.123.035.264.053.425.053h.051l.03-.003c.204-.01.392-.03.567-.06.174-.031.331-.078.47-.142.14-.064.258-.147.358-.25.1-.102.176-.23.231-.382.05-.142.072-.293.062-.452-.009-.16-.04-.325-.09-.497a4.352 4.352 0 00-.203-.536 15.464 15.464 0 00-.268-.563l.676-.43.261.503c.092.18.18.32.265.417.085.097.168.169.247.214.079.046.154.072.226.08.072.007.14.01.206.01a.42.42 0 01.05.003c.234-.001.442-.11.625-.328.071-.086.144-.192.217-.32.044-.081.102-.195.173-.34l.076-.153c.122-.242.253-.424.393-.548a.862.862 0 01.593-.219c.278 0 .523.092.734.277.24.21.376.5.41.867v.028l.004.009v.006a.067.067 0 01.003.021v.015a1.543 1.543 0 00.046.307c.058.244.2.367.422.37h.006a.41.41 0 01.072.005zm-1.35.042c.148-.043.226-.168.235-.375a.866.866 0 00-.104-.471.767.767 0 00-.259-.28.447.447 0 00-.331-.07c-.067.014-.165.148-.293.401l-.11.22a13.976 13.976 0 00-.048.103l-.03.073c.47.27.767.405.888.405a.19.19 0 00.052-.006zm-4.745-1.102l-.58.581-.585-.584.581-.581.584.584zm-5.87 1.06h.376c.085 0 .169-.004.252-.011.083-.008.162-.022.235-.045a.647.647 0 00.193-.094.404.404 0 00.13-.158.466.466 0 00.033-.201c0-.053-.011-.127-.032-.222-.022-.096-.051-.201-.089-.317a5.623 5.623 0 00-.13-.359 4.273 4.273 0 00-.157-.347l.703-.347c.05.116.101.239.152.368.05.13.096.264.135.4.04.138.072.275.096.413.025.138.037.273.037.405 0 .197-.034.372-.1.526a1.143 1.143 0 01-.326.44c-.14.115-.307.2-.5.257a1.64 1.64 0 01-.336.06c-.108.007-.21.01-.302.01h-.463a1.822 1.822 0 01-.56-.086 1.158 1.158 0 01-.435-.264.838.838 0 01-.17-.236 1.217 1.217 0 01-.118-.474 4.515 4.515 0 01-.004-.188 33.515 33.515 0 00.006-1.72 22.568 22.568 0 00-.032-.888c-.01-.14-.02-.271-.034-.394a4.066 4.066 0 00-.047-.327l.764-.228c.022.117.042.26.058.426.016.166.03.343.04.53a25.123 25.123 0 01.037 1.477l.002.169v.149a14.624 14.624 0 01-.005.414 344.492 344.492 0 01-.004.371c-.002.077 0 .15.006.218s.026.118.06.15c.074.078.225.117.454.12h.028c.016 0 .032 0 .048.002zm1.423 1.831l-.582.582-.584-.585.581-.581.585.584z"/></defs><g fill="none" fill-rule="evenodd"><rect width="60" height="85" fill="url(#a)" rx="6"/><use fill="#FFF" xlink:href="#b"/><use fill="#222852" xlink:href="#b"/><path fill="#222852" d="M49.079 69.19c.509 0 .921.413.921.922v4.965a.922.922 0 11-1.842 0v-4.965c0-.51.412-.923.92-.923zm-31.205-4.278l.062 5.163v1.907c0 2.214-1.78 4.015-3.968 4.015-2.188 0-3.968-1.8-3.968-4.015v-1.8a.922.922 0 111.842 0v1.8c0 1.196.954 2.17 2.126 2.17s2.126-.974 2.126-2.17v-1.859l-.063-5.189a.922.922 0 111.842-.022zm18.67 4.277h3.994a.922.922 0 010 1.846h-3.993v.791c0 2.3-1.867 4.171-4.163 4.171a4.172 4.172 0 01-4.162-4.17v-1.645a.922.922 0 111.842 0v1.644a2.325 2.325 0 002.32 2.325c1.28 0 2.32-1.043 2.32-2.325v-3.055a.922.922 0 111.843 0v.418zm-15.099 0h3.34a.922.922 0 010 1.846h-4.25a.932.932 0 01-.185-.018c-.016-.004-.03-.01-.047-.015-.042-.011-.085-.022-.125-.039-.02-.008-.037-.02-.056-.03-.034-.017-.069-.033-.1-.054-.019-.013-.034-.029-.052-.042-.029-.023-.058-.045-.084-.07-.016-.016-.028-.034-.042-.05-.024-.029-.05-.056-.07-.086-.013-.019-.022-.04-.033-.06-.019-.031-.038-.062-.053-.096-.01-.023-.015-.047-.022-.07-.012-.034-.025-.067-.032-.102-.005-.026-.006-.054-.01-.08-.003-.034-.01-.066-.01-.1l-.062-5.189a.922.922 0 111.842-.022l.051 4.277zm23.555 0c.509 0 .92.414.92.923v4.965a.922.922 0 11-1.841 0v-4.965c0-.51.412-.923.92-.923zm-12.618 1.79a.871.871 0 01-.611-.252.866.866 0 010-1.227c.32-.323.902-.326 1.224 0a.875.875 0 010 1.227.878.878 0 01-.613.252zm16.695-2.9a.872.872 0 01-.61-.252.89.89 0 01-.255-.615c0-.227.095-.452.255-.612a.875.875 0 01.781-.238c.056.01.11.028.163.05.05.023.1.048.148.079a.874.874 0 01.131 1.336.797.797 0 01-.13.107 1.1 1.1 0 01-.15.081.882.882 0 01-.333.065zm-25.519 6.626a.833.833 0 01.048.162c.011.056.02.113.02.169a.892.892 0 01-.02.171.807.807 0 01-.048.16.992.992 0 01-.078.152.811.811 0 01-.241.239 1.08 1.08 0 01-.149.08.851.851 0 01-.66 0 .966.966 0 01-.284-.187.954.954 0 01-.187-.284.887.887 0 010-.662c.022-.051.05-.102.08-.15a.812.812 0 01.24-.24.909.909 0 01.31-.13.861.861 0 01.97.52zm14.855-2.143h2.477a.722.722 0 010 1.446h-2.477a.722.722 0 010-1.446zm-14.415-.289a.722.722 0 010 1.445H21.52a.722.722 0 010-1.445h2.477zM11.074 10h11.187c.946 0 1.429 1.14.764 1.809L11.866 23.013c-.674.678-1.83.208-1.83-.742L10 11.067c0-.588.473-1.067 1.074-1.067zm37.869 40H37.74c-.947 0-1.43-1.14-.765-1.809l11.157-11.204c.674-.678 1.831-.208 1.831.742L50 48.933A1.046 1.046 0 0148.943 50zm-37.278-9.693l28.649-28.643a5.665 5.665 0 018.021 0 5.662 5.662 0 010 8.02L19.686 48.336a5.665 5.665 0 01-8.021 0 5.673 5.673 0 010-8.03z"/></g></svg>