<svg width="1581" height="975" fill="none" xmlns="http://www.w3.org/2000/svg"><ellipse rx="8.692" ry="10.865" transform="rotate(30.94 -1009.334 1331.77)" fill="#0934C1"/><path d="M637.267 678.824L587.6 733.457v72.017l44.7-34.957h24.834l42.216 12.607 86.917 37.25-86.917-141.55 64.567-81.95L1581 28l-219.94 434.584-438.144 178.8 320.354-89.4-158.94 213.567-268.197 4.966v12.607l76.918 7.45 69.533 9.933-198.667 173.834L632.3 879.974l42.217-59.6L661 811.5l-105.683 31.034L401.35 735.941l116.717-2.484-206.117-67.05L81 428.007l516.534 213.377 39.733 37.44z" fill="#654EFE"/></svg>